# xmcd CD database file
#
# Track frame offsets:
#	150
#	13317
#	26890
#	40000
#	48948
#	58185
#	73144
#	83939
#	92511
#	101727
#	112683
#
# Disc length: 1703 seconds
#
# Revision: 2
# Processed by: cddbd v1.5.1PL0 Copyright (c) Steve Scherf et al.
# Submitted via: CDex 1.51
#
DISCID=8d06a50b
DTITLE=The G/9 Group - Brazil Now!
DYEAR=1968
DGENRE=Bossa Nova
TTITLE0=P'ra Que Chorar
TTITLE1=Vesti Azul
TTITLE2=Ponteio
TTITLE3=Sambou...Sambou
TTITLE4=Este Seu Olhar
TTITLE5=Viola Enluarada
TTITLE6=Lady Madonna
TTITLE7=Deixa
TTITLE8=Alegria, Alegria
TTITLE9=Retrato Em Branco E Preto
TTITLE10=I've Got You Under My Skin
EXTD=YEAR: 1968
EXTT0=
EXTT1=
EXTT2=
EXTT3=
EXTT4=
EXTT5=
EXTT6=
EXTT7=
EXTT8=
EXTT9=
EXTT10=
PLAYORDER=
